<svg width="1920" height="414" viewBox="0 0 1920 414" fill="none" xmlns="http://www.w3.org/2000/svg">
<circle cx="181.583" cy="201.505" r="1.54649" transform="rotate(-78.9592 181.583 201.505)" fill="white"/>
<circle cx="181.583" cy="201.505" r="1.54649" transform="rotate(-78.9592 181.583 201.505)" fill="white"/>
<circle cx="43.9389" cy="83.26" r="4.63946" transform="rotate(-78.9592 43.9389 83.26)" fill="white"/>
<circle cx="43.9389" cy="83.26" r="4.63946" transform="rotate(-78.9592 43.9389 83.26)" fill="white"/>
<circle cx="227.637" cy="320.786" r="4.63946" transform="rotate(-78.9592 227.637 320.786)" fill="white"/>
<circle cx="227.637" cy="320.786" r="4.63946" transform="rotate(-78.9592 227.637 320.786)" fill="white"/>
<circle cx="65.9296" cy="245.116" r="4.63946" transform="rotate(-78.9592 65.9296 245.116)" fill="white"/>
<circle cx="65.9296" cy="245.116" r="4.63946" transform="rotate(-78.9592 65.9296 245.116)" fill="white"/>
<circle cx="584.65" cy="24.1803" r="1.54649" transform="rotate(-62.2212 584.65 24.1803)" fill="white"/>
<circle cx="584.65" cy="24.1803" r="1.54649" transform="rotate(-62.2212 584.65 24.1803)" fill="white"/>
<circle cx="649.917" cy="408.461" r="4.63946" transform="rotate(84.7399 649.917 408.461)" fill="white"/>
<circle cx="649.917" cy="408.461" r="4.63946" transform="rotate(84.7399 649.917 408.461)" fill="white"/>
<circle cx="715.085" cy="340.34" r="1.54649" transform="rotate(84.7399 715.085 340.34)" fill="white"/>
<circle cx="715.085" cy="340.34" r="1.54649" transform="rotate(84.7399 715.085 340.34)" fill="white"/>
<circle cx="766.105" cy="388.446" r="4.63946" transform="rotate(84.7399 766.105 388.446)" fill="white"/>
<circle cx="766.105" cy="388.446" r="4.63946" transform="rotate(84.7399 766.105 388.446)" fill="white"/>
<circle cx="730.103" cy="250.435" r="6.18595" transform="rotate(84.7399 730.103 250.435)" fill="white"/>
<circle cx="730.103" cy="250.435" r="6.18595" transform="rotate(84.7399 730.103 250.435)" fill="white"/>
<circle cx="369.28" cy="79.4784" r="2.7332" transform="rotate(-104.519 369.28 79.4784)" fill="white"/>
<circle cx="369.28" cy="79.4784" r="2.7332" transform="rotate(-104.519 369.28 79.4784)" fill="white"/>
<circle cx="533.665" cy="234.544" r="8.19961" transform="rotate(-104.519 533.665 234.544)" fill="white"/>
<circle cx="533.665" cy="234.544" r="8.19961" transform="rotate(-104.519 533.665 234.544)" fill="white"/>
<circle cx="218.136" cy="237.201" r="8.19961" transform="rotate(-104.519 218.136 237.201)" fill="white"/>
<circle cx="218.136" cy="237.201" r="8.19961" transform="rotate(-104.519 218.136 237.201)" fill="white"/>
<circle cx="1088.59" cy="197.157" r="1.54649" fill="white"/>
<circle cx="1088.59" cy="197.157" r="1.54649" fill="white"/>
<circle cx="1178.29" cy="39.4156" r="4.63946" fill="white"/>
<circle cx="1178.29" cy="39.4156" r="4.63946" fill="white"/>
<circle cx="1023.64" cy="91.9961" r="4.63946" fill="white"/>
<circle cx="1023.64" cy="91.9961" r="4.63946" fill="white"/>
<circle cx="1385.02" cy="164.03" r="1.54649" transform="rotate(-78.9592 1385.02 164.03)" fill="white"/>
<circle cx="1385.02" cy="164.03" r="1.54649" transform="rotate(-78.9592 1385.02 164.03)" fill="white"/>
<circle cx="1615.58" cy="177.505" r="1.54649" transform="rotate(-78.9592 1615.58 177.505)" fill="white"/>
<circle cx="1615.58" cy="177.505" r="1.54649" transform="rotate(-78.9592 1615.58 177.505)" fill="white"/>
<circle cx="1477.94" cy="59.26" r="4.63946" transform="rotate(-78.9592 1477.94 59.26)" fill="white"/>
<circle cx="1477.94" cy="59.26" r="4.63946" transform="rotate(-78.9592 1477.94 59.26)" fill="white"/>
<circle cx="1661.64" cy="296.786" r="4.63946" transform="rotate(-78.9592 1661.64 296.786)" fill="white"/>
<circle cx="1661.64" cy="296.786" r="4.63946" transform="rotate(-78.9592 1661.64 296.786)" fill="white"/>
<circle cx="1499.93" cy="221.116" r="4.63946" transform="rotate(-78.9592 1499.93 221.116)" fill="white"/>
<circle cx="1499.93" cy="221.116" r="4.63946" transform="rotate(-78.9592 1499.93 221.116)" fill="white"/>
<circle cx="1425.39" cy="209.807" r="2.7332" transform="rotate(-104.519 1425.39 209.807)" fill="white"/>
<circle cx="1425.39" cy="209.807" r="2.7332" transform="rotate(-104.519 1425.39 209.807)" fill="white"/>
<circle cx="1803.28" cy="55.4784" r="2.7332" transform="rotate(-104.519 1803.28 55.4784)" fill="white"/>
<circle cx="1803.28" cy="55.4784" r="2.7332" transform="rotate(-104.519 1803.28 55.4784)" fill="white"/>
<circle cx="1652.14" cy="213.201" r="8.19961" transform="rotate(-104.519 1652.14 213.201)" fill="white"/>
<circle cx="1652.14" cy="213.201" r="8.19961" transform="rotate(-104.519 1652.14 213.201)" fill="white"/>
</svg>
